<svg width="341" height="387" viewBox="0 0 341 387" fill="none" xmlns="http://www.w3.org/2000/svg">
<path d="M195.098 378.057C196.268 376.887 197.097 376.887 198.218 377.667C197.096 380.787 197.828 383.907 199.388 386.246C194.708 384.686 194.709 380.007 195.098 378.057ZM181.451 377.514C182.231 377.124 183.011 378.294 183.011 379.073C182.231 379.463 181.841 382.972 182.621 385.702C179.501 382.193 180.671 378.293 181.451 377.514ZM9.87289 3.95012C27.4868 -1.30338 36.3896 -2.29011 50.4276 7.06535C94.8829 36.6925 112.541 81.8962 130.756 136.532C142.454 171.623 163.901 212.177 163.901 221.536C156.492 231.675 153.58 236.148 149.473 245.327C146.621 251.703 145.184 253.902 145.964 260.141C152.203 278.468 168.971 272.229 173.65 269.499C186.908 269.499 198.121 274.177 213.035 279.638C227.853 288.606 243.06 292.507 248.13 296.406C241.5 302.255 192.759 289.387 183.789 292.506C181.449 295.235 180.942 299.393 181.449 303.425C182.019 307.96 186.478 309.067 187.299 313.563C188.179 318.388 185.349 322.142 185.738 324.481C186.407 328.497 188.881 333.154 189.638 336.181C190.028 337.74 193.154 337.74 193.928 339.3C195.405 342.279 192.383 344.759 192.367 345.929C192.311 350.087 194.085 352.094 196.657 355.287C199.201 358.445 205.235 359.966 206.015 361.525C204.066 361.915 203.286 363.476 203.286 365.036C199.793 364.648 195.142 361.556 195.097 361.526C195.096 361.532 194.345 365.986 195.097 368.935C195.595 370.885 198.997 374.785 198.997 377.125C197.047 375.955 195.877 376.345 194.707 377.515C192.367 374.785 191.862 371.09 191.588 369.716C191.198 367.766 191.137 365.735 189.248 364.646C188.468 368.545 186.519 370.884 186.129 373.615C186.516 377.488 183.826 379.053 183.789 379.074C183.789 377.515 182.619 376.733 181.449 376.345C181.449 371.274 184.502 367.882 184.179 362.307C184.026 359.682 182.536 358.264 183.009 355.678C183.339 353.868 184.608 353.194 184.959 351.388C185.426 348.977 185.275 347.346 184.179 345.149C183.789 344.368 174.82 336.569 175.21 332.279C170.818 328.611 166.149 329.637 161.952 325.651C158.767 322.627 160.782 318.709 155.713 316.293C150.68 313.894 146.416 315.105 146.354 315.123L131.926 312.393C131.828 312.427 103.451 322.105 90.5916 312.393C79.6922 304.162 75.3285 287.827 77.3338 280.028C77.9354 277.689 74.958 261.561 82.4032 255.851C85.9863 253.104 93.2811 251.958 93.3211 251.952C93.3295 251.935 94.8798 248.823 94.4911 245.327C94.4911 245.327 63.2953 168.118 34.4393 122.494C13.5693 89.4969 -15.4736 54.2531 9.87289 3.95012ZM145.183 367.375C145.965 367.375 146.355 367.375 146.745 368.545C146.745 370.494 145.965 372.444 147.523 375.174C143.235 373.614 144.405 368.156 145.183 367.375ZM136.996 364.645C137.386 364.645 138.166 364.646 138.166 365.426C138.166 366.206 136.607 368.545 137.776 370.885C135.047 369.715 135.826 365.426 136.996 364.645ZM148.306 316.682C156.498 316.292 159.614 325.261 159.614 325.261C159.595 325.282 156.13 329.179 155.324 332.279C154.401 335.829 153.616 338.943 156.104 341.638C157.399 343.039 159.225 343.978 160.008 345.147C159.225 345.537 158.445 346.317 158.448 347.487C158.055 347.877 156.978 347.682 156.494 348.268C156.888 350.607 154.938 352.556 152.984 352.946C153.378 356.846 152.984 358.796 150.255 360.355C151.039 364.255 149.479 368.154 147.525 368.544C147.525 366.984 145.969 366.595 145.185 366.595C145.185 363.085 147.919 356.456 147.525 349.827C147.399 354.116 145.974 357.625 145.19 358.405C144.758 358.835 144.059 358.364 143.63 358.796C142.854 359.576 142.783 360.528 142.066 361.525C142.46 363.865 140.9 365.815 138.556 365.035C138.171 364.255 137.781 364.255 136.997 364.255C137.391 363.085 136.928 362.352 136.997 361.136C141.29 355.286 144.8 345.537 148.695 340.078C151.819 330.719 148.252 316.684 148.306 316.682ZM206.407 362.305C207.579 362.695 210.308 363.085 211.866 366.984C209.138 364.645 205.628 365.424 204.457 364.644C204.457 363.865 204.849 362.305 206.407 362.305ZM160.393 345.536C160.608 345.528 161.564 346.706 161.407 347.876C160.395 348.265 159.321 347.687 159.224 347.486C158.852 346.705 159.224 345.928 160.393 345.536ZM118.668 276.516C115.548 273.006 110.088 274.48 107.749 275.347C105.093 276.331 102.923 277.284 101.899 280.023C100.987 282.465 103.227 284.105 102.68 286.653C102.014 289.751 100.183 290.986 97.9998 293.282C96.7476 294.599 94.5307 296.754 94.4911 296.793C94.4685 296.765 90.3216 291.703 89.0311 287.822C88.2491 285.47 88.2689 284.029 87.8612 281.584C87.4712 279.246 87.861 276.126 85.1317 276.126C83.9618 277.296 83.9621 278.856 84.742 280.414C85.6308 282.189 86.577 282.931 87.4715 284.703C88.2513 286.248 88.5084 291.336 90.201 295.231C91.6111 298.476 94.8554 302.995 94.8807 303.03C94.918 302.989 98.4004 299.112 100.34 295.231C101.314 293.282 104.682 291.515 105.409 288.213C105.802 286.428 105.409 285.095 105.409 283.533C110.868 283.533 117.108 281.196 118.668 276.516ZM340.158 72.9657C340.158 72.9657 285.955 163.044 237.992 209.447C210.276 236.262 170.141 269.499 170.141 269.499C170.141 269.499 149.475 276.908 149.474 256.631C155.324 237.134 187.547 195.41 198.997 186.051C243.841 149.396 340.158 72.9657 340.158 72.9657Z" fill="#5BBF34"/>
</svg>
